<?xml version="1.0" standalone="no"?>
<!DOCTYPE svg PUBLIC "-//W3C//DTD SVG 20010904//EN"
 "http://www.w3.org/TR/2001/REC-SVG-20010904/DTD/svg10.dtd">
<svg version="1.0" xmlns="http://www.w3.org/2000/svg"
 width="189.000000pt" height="185.000000pt" viewBox="0 0 189.000000 185.000000"
 preserveAspectRatio="xMidYMid meet">
<metadata>
Created by potrace 1.16, written by Peter Selinger 2001-2019
</metadata>
<g transform="translate(0.000000,185.000000) scale(0.100000,-0.100000)"
fill="#000000" stroke="none">
<path d="M845 1729 c-108 -10 -266 -65 -352 -122 -433 -288 -492 -907 -120
-1264 144 -138 311 -209 517 -220 245 -12 448 64 616 232 174 174 245 366 231
630 -11 217 -91 384 -262 543 -110 103 -278 181 -425 197 -108 11 -126 12
-205 4z m45 -259 l0 -160 -146 0 c-128 0 -145 2 -134 15 17 21 145 83 186 91
l34 6 0 59 c0 33 -1 59 -3 59 -2 0 -27 -7 -56 -16 -29 -8 -55 -13 -57 -11 -3
2 -9 18 -14 36 -7 25 -5 33 8 39 21 11 97 30 137 35 17 2 33 5 38 6 4 0 7 -71
7 -159z m220 134 c89 -20 93 -24 85 -68 -8 -41 -8 -41 -61 -23 -22 8 -51 17
-66 21 l-28 6 0 -60 c0 -56 2 -60 23 -60 26 0 151 -59 187 -89 l25 -21 -150 3
-150 2 -3 145 c-1 79 0 150 2 157 6 14 27 12 136 -13z m-509 -111 c11 -35 10
-38 -12 -52 -13 -8 -56 -46 -95 -85 -61 -62 -122 -156 -155 -243 -2 -5 -21 -8
-41 -5 -35 4 -37 6 -32 31 13 51 75 167 123 227 42 53 173 164 193 164 3 0 12
-17 19 -37z m828 -74 c36 -37 81 -92 100 -123 32 -54 86 -175 79 -180 -2 -2
-20 -6 -41 -9 -30 -5 -39 -2 -43 11 -3 9 -22 50 -41 91 -27 56 -55 94 -120
158 l-84 84 11 35 12 34 30 -17 c17 -10 60 -48 97 -84z m-311 -246 l-3 -38
-180 0 -180 0 -3 38 -3 37 186 0 186 0 -3 -37z m-228 -173 l0 -50 -230 0 -230
0 0 34 c0 69 -11 66 236 66 l224 0 0 -50z m544 28 c3 -13 6 -35 6 -50 l0 -28
-235 0 -235 0 0 43 c0 24 3 47 7 50 3 4 106 7 229 7 221 0 222 0 228 -22z
m-1139 -34 c17 -4 20 -14 22 -74 2 -101 20 -175 63 -262 l38 -76 -29 -28 c-34
-33 -31 -35 -80 59 -40 78 -69 204 -69 305 0 88 2 91 55 76z m1338 -30 c17
-104 -36 -308 -106 -407 l-19 -28 -29 27 -28 27 34 67 c45 88 65 171 65 263 0
80 2 83 56 86 17 1 23 -6 27 -35z m-965 -146 l-3 -53 -101 -3 c-114 -3 -118
-1 -129 66 l-7 42 122 0 121 0 -3 -52z m447 -3 l0 -50 -180 0 -180 0 -3 39
c-6 69 -12 67 185 64 l178 -3 0 -50z m319 18 c-13 -73 -13 -73 -129 -73 l-105
0 0 55 0 55 120 0 121 0 -7 -37z m-64 -159 c0 -15 -76 -107 -113 -138 -46 -37
-157 -96 -182 -96 -11 0 -15 11 -15 38 0 38 1 38 80 77 117 57 108 70 -45 70
l-120 0 -3 -102 -3 -103 -39 0 -40 0 0 105 0 106 -117 -3 c-148 -4 -157 -16
-53 -73 68 -37 70 -40 70 -77 0 -21 -5 -38 -10 -38 -6 0 -38 14 -72 31 -68 34
-146 103 -190 167 l-29 42 441 0 c242 0 440 -3 440 -6z m25 -272 c-99 -89
-243 -156 -365 -169 l-60 -6 0 40 0 40 48 6 c110 13 256 83 326 156 l29 30 35
-27 35 -26 -48 -44z m-841 39 c35 -27 88 -60 118 -74 56 -26 161 -57 197 -57
18 0 21 -6 21 -40 0 -37 -2 -40 -27 -40 -99 1 -279 77 -375 159 l-56 48 26 27
c15 14 28 26 30 26 1 0 31 -22 66 -49z"/>
</g>
</svg>
