<?xml version="1.0" standalone="no"?>
<!DOCTYPE svg PUBLIC "-//W3C//DTD SVG 20010904//EN"
 "http://www.w3.org/TR/2001/REC-SVG-20010904/DTD/svg10.dtd">
<svg version="1.0" xmlns="http://www.w3.org/2000/svg"
 width="200.000000pt" height="200.000000pt" viewBox="0 0 200.000000 200.000000"
 preserveAspectRatio="xMidYMid meet">

<g transform="translate(0.000000,200.000000) scale(0.100000,-0.100000)"
fill="#000000" stroke="none">
<path d="M755 1804 c-377 -83 -645 -416 -645 -802 0 -327 169 -602 455 -742
123 -60 191 -79 320 -87 239 -14 460 70 631 241 285 285 324 719 94 1056 -39
56 -150 168 -207 208 -50 35 -162 88 -238 112 -93 30 -306 37 -410 14z m135
-254 l0 -160 -152 0 -152 0 35 26 c48 36 86 55 149 75 l55 17 3 56 3 57 -28
-7 c-15 -3 -41 -10 -57 -15 -16 -5 -32 -9 -36 -9 -9 0 -30 80 -21 81 3 0 38 9
76 19 39 10 82 19 98 19 l27 1 0 -160z m258 128 c49 -15 62 -23 58 -35 -3 -8
-9 -26 -12 -40 -4 -14 -12 -22 -20 -19 -7 3 -32 10 -56 16 -24 6 -51 13 -60
16 -16 5 -18 -2 -18 -55 0 -57 2 -61 23 -61 29 0 177 -71 196 -93 12 -16 2
-17 -138 -17 l-151 0 0 161 0 161 57 -7 c32 -4 86 -16 121 -27z m-557 -105
c11 -35 10 -38 -12 -52 -13 -8 -56 -47 -95 -86 -57 -57 -81 -90 -115 -163 -44
-91 -44 -91 -81 -92 -30 0 -38 4 -38 18 1 56 105 235 177 303 46 44 131 109
143 109 5 0 14 -17 21 -37z m806 -35 c93 -80 197 -237 218 -329 6 -25 4 -27
-34 -31 -39 -3 -40 -3 -57 42 -36 97 -130 224 -203 275 -22 15 -38 32 -36 38
24 67 24 68 44 57 11 -5 42 -29 68 -52z m-737 -293 l0 -45 -100 0 c-55 0 -100
3 -100 6 0 9 22 48 38 67 12 13 31 17 89 17 l73 0 0 -45z m458 3 l-3 -43 -182
-3 -183 -2 0 45 0 45 186 0 185 0 -3 -42z m261 13 c40 -56 32 -62 -76 -59
l-98 3 -3 43 -3 42 80 0 c77 0 80 -1 100 -29z m-489 -191 l0 -50 -238 0 -238
0 4 38 c2 20 5 43 7 50 3 9 59 12 235 12 l230 0 0 -50z m554 28 c3 -13 6 -35
6 -50 l0 -28 -240 0 -240 0 0 50 0 50 234 0 234 0 6 -22z m-1140 -120 c8 -116
26 -185 70 -269 l34 -67 -29 -28 c-35 -34 -32 -36 -90 81 -46 95 -69 191 -69
298 l0 77 39 0 38 0 7 -92z m1343 0 c-3 -51 -13 -123 -22 -160 -19 -73 -83
-209 -101 -215 -7 -2 -24 6 -38 19 l-27 23 30 55 c43 79 71 191 71 281 0 41 3
79 7 82 3 4 24 7 46 7 l40 0 -6 -92z m-987 -93 l0 -55 -110 0 -109 0 -10 38
c-21 74 -25 72 109 72 l120 0 0 -55z m458 -2 l3 -53 -185 0 -186 0 0 55 0 55
183 -2 182 -3 3 -52z m326 49 c2 -4 0 -29 -6 -55 l-10 -47 -114 0 -114 0 0 48
c0 27 3 52 7 55 9 10 231 9 237 -1z m-64 -190 c0 -17 -57 -88 -107 -132 -49
-44 -167 -110 -198 -110 -11 0 -15 11 -15 38 0 38 1 38 80 77 57 28 80 44 80
57 0 17 -9 18 -122 16 l-123 -3 -3 -102 -3 -103 -39 0 -40 0 0 105 0 105 -126
0 c-114 0 -125 -2 -122 -17 2 -10 36 -36 75 -58 70 -39 73 -41 73 -77 0 -47
-8 -47 -91 -6 -69 34 -174 131 -203 186 l-17 32 451 0 c247 0 450 -4 450 -8z
m42 -265 c-87 -91 -277 -178 -412 -189 -35 -3 -35 -2 -35 36 l0 40 65 12 c122
23 253 88 319 158 l23 25 34 -27 33 -27 -27 -28z m-884 29 c96 -75 243 -136
326 -136 24 0 26 -3 26 -44 l0 -45 -37 6 c-138 19 -268 75 -375 161 l-57 47
26 27 c15 16 29 28 31 28 2 0 29 -20 60 -44z"/>
</g>
</svg>
